<svg width="421.625px" height="125.293701171875px" xmlns="http://www.w3.org/2000/svg" viewBox="39.1875 12.3531494140625 421.625 125.293701171875" style="background-color: rgba(0, 0, 0, 0); background-position: initial initial; background-repeat: initial initial;" preserveAspectRatio="xMidYMid"><defs><filter id="editing-extrusion" x="-100%" y="-100%" width="300%" height="300%"><feFlood result="color1" flood-color="#258dd2"></feFlood><feConvolveMatrix order="6,6" divisor="1" kernelMatrix="1 0 0 0 0 0 0 1 0 0 0 0 0 0 1 0 0 0 0 0 0 1 0 0 0 0 0 0 1 0 0 0 0 0 0 1" in="SourceAlpha" result="extrude"></feConvolveMatrix><feComposite in="color1" in2="extrude" result="comp-extrude" operator="in"></feComposite><feOffset dx="3" dy="3" in="comp-extrude" result="offset-extrude"></feOffset><feMerge><feMergeNode in="offset-extrude"></feMergeNode><feMergeNode in="SourceGraphic"></feMergeNode></feMerge></filter></defs><g filter="url(#editing-extrusion)"><g transform="translate(104.20999753475189, 99.13781356811523)"><path d="M31.87-12.29L31.87-12.29L33.02-13.12L33.02-13.12Q35.20-14.40 36.10-14.40L36.10-14.40L36.10-14.40Q38.08-14.40 40.38-10.82L40.38-10.82L40.38-10.82Q41.79-8.58 41.79-7.23L41.79-7.23L41.79-7.23Q41.79-5.89 40.93-4.99L40.93-4.99L40.93-4.99Q40.06-4.10 38.91-3.39L38.91-3.39L38.91-3.39Q37.76-2.69 36.70-2.05L36.70-2.05L36.70-2.05Q35.65-1.41 32.38-0.38L32.38-0.38L32.38-0.38Q29.12 0.64 26.08 0.64L26.08 0.64L26.08 0.64Q23.04 0.64 19.94-0.16L19.94-0.16L19.94-0.16Q16.83-0.96 13.54-2.85L13.54-2.85L13.54-2.85Q10.24-4.74 7.62-7.46L7.62-7.46L7.62-7.46Q4.99-10.18 3.30-14.43L3.30-14.43L3.30-14.43Q1.60-18.69 1.60-23.68L1.60-23.68L1.60-23.68Q1.60-28.67 3.26-32.74L3.26-32.74L3.26-32.74Q4.93-36.80 7.52-39.46L7.52-39.46L7.52-39.46Q10.11-42.11 13.44-43.90L13.44-43.90L13.44-43.90Q19.71-47.36 26.05-47.36L26.05-47.36L26.05-47.36Q29.06-47.36 32.16-46.43L32.16-46.43L32.16-46.43Q35.26-45.50 36.86-44.54L36.86-44.54L38.40-43.65L38.40-43.65Q39.55-42.94 40.19-42.50L40.19-42.50L40.19-42.50Q41.86-41.15 41.86-39.46L41.86-39.46L41.86-39.46Q41.86-37.76 40.51-35.90L40.51-35.90L40.51-35.90Q38.02-32.45 36.03-32.45L36.03-32.45L36.03-32.45Q34.88-32.45 32.77-33.86L32.77-33.86L32.77-33.86Q30.08-36.03 25.60-36.03L25.60-36.03L25.60-36.03Q21.44-36.03 17.41-33.15L17.41-33.15L17.41-33.15Q15.49-31.74 14.21-29.18L14.21-29.18L14.21-29.18Q12.93-26.62 12.93-23.39L12.93-23.39L12.93-23.39Q12.93-20.16 14.21-17.60L14.21-17.60L14.21-17.60Q15.49-15.04 17.47-13.57L17.47-13.57L17.47-13.57Q21.38-10.75 25.60-10.75L25.60-10.75L25.60-10.75Q27.58-10.75 29.34-11.26L29.34-11.26L29.34-11.26Q31.10-11.78 31.87-12.29ZM68.03-47.49L68.03-47.49L68.03-47.49Q77.50-47.49 84.48-40.64L84.48-40.64L84.48-40.64Q91.46-33.79 91.46-23.65L91.46-23.65L91.46-23.65Q91.46-13.50 84.80-6.37L84.80-6.37L84.80-6.37Q78.14 0.77 68.42 0.77L68.42 0.77L68.42 0.77Q58.69 0.77 51.87-6.27L51.87-6.27L51.87-6.27Q45.06-13.31 45.06-23.04L45.06-23.04L45.06-23.04Q45.06-28.35 46.98-32.99L46.98-32.99L46.98-32.99Q48.90-37.63 52.10-40.77L52.10-40.77L52.10-40.77Q55.30-43.90 59.46-45.70L59.46-45.70L59.46-45.70Q63.62-47.49 68.03-47.49ZM56.38-23.36L56.38-23.36L56.38-23.36Q56.38-17.66 60.06-14.11L60.06-14.11L60.06-14.11Q63.74-10.56 68.29-10.56L68.29-10.56L68.29-10.56Q72.83-10.56 76.48-14.02L76.48-14.02L76.48-14.02Q80.13-17.47 80.13-23.30L80.13-23.30L80.13-23.30Q80.13-29.12 76.45-32.64L76.45-32.64L76.45-32.64Q72.77-36.16 68.22-36.16L68.22-36.16L68.22-36.16Q63.68-36.16 60.03-32.61L60.03-32.61L60.03-32.61Q56.38-29.06 56.38-23.36ZM98.69-46.98L98.69-46.98L134.27-46.98L134.27-46.98Q136.32-46.98 137.28-46.50L137.28-46.50L137.28-46.50Q138.24-46.02 138.56-44.99L138.56-44.99L138.56-44.99Q138.88-43.97 138.88-42.30L138.88-42.30L138.88-42.30Q138.88-40.64 138.56-39.65L138.56-39.65L138.56-39.65Q138.24-38.66 137.47-38.27L137.47-38.27L137.47-38.27Q136.32-37.70 134.21-37.70L134.21-37.70L121.98-37.70L121.98-5.50L121.98-5.50Q121.98-4.03 121.89-3.33L121.89-3.33L121.89-3.33Q121.79-2.62 121.31-1.70L121.31-1.70L121.31-1.70Q120.83-0.77 119.62-0.38L119.62-0.38L119.62-0.38Q118.40 0 116.42 0L116.42 0L116.42 0Q114.43 0 113.25-0.38L113.25-0.38L113.25-0.38Q112.06-0.77 111.58-1.70L111.58-1.70L111.58-1.70Q111.10-2.62 111.01-3.36L111.01-3.36L111.01-3.36Q110.91-4.10 110.91-5.57L110.91-5.57L110.91-37.70L98.62-37.70L98.62-37.70Q96.58-37.70 95.62-38.18L95.62-38.18L95.62-38.18Q94.66-38.66 94.34-39.68L94.34-39.68L94.34-39.68Q94.02-40.70 94.02-42.37L94.02-42.37L94.02-42.37Q94.02-44.03 94.34-45.02L94.34-45.02L94.34-45.02Q94.66-46.02 95.42-46.40L95.42-46.40L95.42-46.40Q96.58-46.98 98.69-46.98ZM160.58-47.49L160.58-47.49L160.58-47.49Q170.05-47.49 177.02-40.64L177.02-40.64L177.02-40.64Q184-33.79 184-23.65L184-23.65L184-23.65Q184-13.50 177.34-6.37L177.34-6.37L177.34-6.37Q170.69 0.77 160.96 0.77L160.96 0.77L160.96 0.77Q151.23 0.77 144.42-6.27L144.42-6.27L144.42-6.27Q137.60-13.31 137.60-23.04L137.60-23.04L137.60-23.04Q137.60-28.35 139.52-32.99L139.52-32.99L139.52-32.99Q141.44-37.63 144.64-40.77L144.64-40.77L144.64-40.77Q147.84-43.90 152-45.70L152-45.70L152-45.70Q156.16-47.49 160.58-47.49ZM148.93-23.36L148.93-23.36L148.93-23.36Q148.93-17.66 152.61-14.11L152.61-14.11L152.61-14.11Q156.29-10.56 160.83-10.56L160.83-10.56L160.83-10.56Q165.38-10.56 169.02-14.02L169.02-14.02L169.02-14.02Q172.67-17.47 172.67-23.30L172.67-23.30L172.67-23.30Q172.67-29.12 168.99-32.64L168.99-32.64L168.99-32.64Q165.31-36.16 160.77-36.16L160.77-36.16L160.77-36.16Q156.22-36.16 152.58-32.61L152.58-32.61L152.58-32.61Q148.93-29.06 148.93-23.36ZM218.46-44.96L218.46-44.96L218.46-44.96Q219.07-46.08 220.29-46.46L220.29-46.46L220.29-46.46Q221.50-46.85 223.33-46.85L223.33-46.85L223.33-46.85Q225.15-46.85 226.27-46.53L226.27-46.53L226.27-46.53Q227.39-46.21 227.94-45.76L227.94-45.76L227.94-45.76Q228.48-45.31 228.74-44.42L228.74-44.42L228.74-44.42Q229.12-43.39 229.12-41.15L229.12-41.15L229.12-5.63L229.12-5.63Q229.12-4.10 229.02-3.39L229.02-3.39L229.02-3.39Q228.93-2.69 228.42-1.73L228.42-1.73L228.42-1.73Q227.52 0 223.42 0L223.42 0L223.42 0Q220.93 0 219.97-0.38L219.97-0.38L219.97-0.38Q219.01-0.77 218.37-1.60L218.37-1.60L218.37-1.60Q203.97-20.80 199.42-26.69L199.42-26.69L199.42-5.63L199.42-5.63Q199.42-4.10 199.33-3.39L199.33-3.39L199.33-3.39Q199.23-2.69 198.72-1.73L198.72-1.73L198.72-1.73Q197.82 0 193.73 0L193.73 0L193.73 0Q189.76 0 188.86-1.73L188.86-1.73L188.86-1.73Q188.35-2.69 188.26-3.46L188.26-3.46L188.26-3.46Q188.16-4.22 188.16-5.70L188.16-5.70L188.16-41.41L188.16-41.41Q188.16-43.84 188.77-44.96L188.77-44.96L188.77-44.96Q189.38-46.08 190.59-46.46L190.59-46.46L190.59-46.46Q191.81-46.85 193.73-46.85L193.73-46.85L193.73-46.85Q195.65-46.85 196.77-46.50L196.77-46.50L196.77-46.50Q197.89-46.14 198.34-45.70L198.34-45.70L198.34-45.70Q198.59-45.50 199.81-44.03L199.81-44.03L199.81-44.03Q213.31-25.66 217.86-19.78L217.86-19.78L217.86-41.41L217.86-41.41Q217.86-43.84 218.46-44.96ZM234.24-5.70L234.24-41.28L234.24-41.28Q234.24-42.75 234.34-43.49L234.34-43.49L234.34-43.49Q234.43-44.22 234.94-45.18L234.94-45.18L234.94-45.18Q235.84-46.91 239.94-46.91L239.94-46.91L239.94-46.91Q244.42-46.91 245.25-44.54L245.25-44.54L245.25-44.54Q245.57-43.46 245.57-41.22L245.57-41.22L245.57-5.63L245.57-5.63Q245.57-4.10 245.47-3.39L245.47-3.39L245.47-3.39Q245.38-2.69 244.86-1.73L244.86-1.73L244.86-1.73Q243.97 0 239.87 0L239.87 0L239.87 0Q235.39 0 234.62-2.43L234.62-2.43L234.62-2.43Q234.24-3.46 234.24-5.70L234.24-5.70ZM280-12.29L280-12.29L281.15-13.12L281.15-13.12Q283.33-14.40 284.22-14.40L284.22-14.40L284.22-14.40Q286.21-14.40 288.51-10.82L288.51-10.82L288.51-10.82Q289.92-8.58 289.92-7.23L289.92-7.23L289.92-7.23Q289.92-5.89 289.06-4.99L289.06-4.99L289.06-4.99Q288.19-4.10 287.04-3.39L287.04-3.39L287.04-3.39Q285.89-2.69 284.83-2.05L284.83-2.05L284.83-2.05Q283.78-1.41 280.51-0.38L280.51-0.38L280.51-0.38Q277.25 0.64 274.21 0.64L274.21 0.64L274.21 0.64Q271.17 0.64 268.06-0.16L268.06-0.16L268.06-0.16Q264.96-0.96 261.66-2.85L261.66-2.85L261.66-2.85Q258.37-4.74 255.74-7.46L255.74-7.46L255.74-7.46Q253.12-10.18 251.42-14.43L251.42-14.43L251.42-14.43Q249.73-18.69 249.73-23.68L249.73-23.68L249.73-23.68Q249.73-28.67 251.39-32.74L251.39-32.74L251.39-32.74Q253.06-36.80 255.65-39.46L255.65-39.46L255.65-39.46Q258.24-42.11 261.57-43.90L261.57-43.90L261.57-43.90Q267.84-47.36 274.18-47.36L274.18-47.36L274.18-47.36Q277.18-47.36 280.29-46.43L280.29-46.43L280.29-46.43Q283.39-45.50 284.99-44.54L284.99-44.54L286.53-43.65L286.53-43.65Q287.68-42.94 288.32-42.50L288.32-42.50L288.32-42.50Q289.98-41.15 289.98-39.46L289.98-39.46L289.98-39.46Q289.98-37.76 288.64-35.90L288.64-35.90L288.64-35.90Q286.14-32.45 284.16-32.45L284.16-32.45L284.16-32.45Q283.01-32.45 280.90-33.86L280.90-33.86L280.90-33.86Q278.21-36.03 273.73-36.03L273.73-36.03L273.73-36.03Q269.57-36.03 265.54-33.15L265.54-33.15L265.54-33.15Q263.62-31.74 262.34-29.18L262.34-29.18L262.34-29.18Q261.06-26.62 261.06-23.39L261.06-23.39L261.06-23.39Q261.06-20.16 262.34-17.60L262.34-17.60L262.34-17.60Q263.62-15.04 265.60-13.57L265.60-13.57L265.60-13.57Q269.50-10.75 273.73-10.75L273.73-10.75L273.73-10.75Q275.71-10.75 277.47-11.26L277.47-11.26L277.47-11.26Q279.23-11.78 280-12.29Z" fill="#4ba4df"></path></g></g><style>text {
  font-size: 64px;
  font-family: Arial Black;
  dominant-baseline: central;
  text-anchor: middle;
}</style></svg>